<?xml version="1.0" encoding="UTF-8"?>
<svg id="Layer_2" data-name="Layer 2" xmlns="http://www.w3.org/2000/svg" viewBox="0 0 81 81">
  <defs>
    <style>
      .cls-1 {
        fill: #fff;
      }
    </style>
  </defs>
  <g id="Layer_1-2" data-name="Layer 1">
    <path class="cls-1" d="M40.5,0C18.13,0,0,18.13,0,40.5s18.13,40.5,40.5,40.5,40.5-18.13,40.5-40.5S62.87,0,40.5,0ZM6.27,37.32c4.6-11.4,11.99,3.96,6.76,9.63-3.73,4.04-9.35-3.21-6.76-9.63ZM21.4,70.35c-2.18,2.03-12.43-8.21-10.4-10.4,3.27-1.16,12.13,8.8,10.4,10.4ZM10.99,21.75c-2.03-2.18,8.21-12.43,10.4-10.4,1.74,1.6-7.17,11.59-10.4,10.4ZM47.5,71.62c-1.8,8.19-19.45,2.85-13.07-3.29,2.81-2.71,14.37-2.61,13.07,3.29ZM46.25,44.87c-7.98,10.94-20.11-7.67-7.81-11.34,6-1.79,11.93,5.69,7.81,11.34ZM46.57,13.36c-3.01,2.89-14.56,2.02-13.39-3.6,1.67-7.99,20.02-2.77,13.39,3.6ZM59.6,11.34c3.73-1.61,12.46,8.21,10.4,10.4-3.06.87-11.92-8.96-10.4-10.4ZM59.6,70.35c-1.18-3.23,8.8-12.14,10.4-10.4,2.03,2.2-8.22,12.44-10.4,10.4ZM67.98,46.95c-5.23-5.67,2.15-21.02,6.76-9.63,2.59,6.42-3.03,13.67-6.76,9.63Z"/>
  </g>
</svg>